<svg width="390" height="844" viewBox="0 0 390 844" fill="none" xmlns="http://www.w3.org/2000/svg">
  <rect width="390" height="844" fill="#F7F9FA"/>
  <text x="24" y="58" fill="#66717C" font-family="Arial, sans-serif" font-size="14" font-weight="700">크레딧 충전</text>
  <text x="24" y="98" fill="#151B22" font-family="Arial, sans-serif" font-size="28" font-weight="800">크레딧 충전</text>
  <rect x="24" y="132" width="342" height="92" rx="10" fill="#FFFFFF" stroke="#E4E9EE"/>
  <text x="48" y="166" fill="#66717C" font-family="Arial, sans-serif" font-size="15">충전 계좌</text>
  <text x="48" y="197" fill="#26313C" font-family="Arial, sans-serif" font-size="18" font-weight="800">국민 123-****-7890</text>
  <rect x="24" y="252" width="342" height="118" rx="10" fill="#FFFFFF" stroke="#E4E9EE"/>
  <text x="48" y="290" fill="#66717C" font-family="Arial, sans-serif" font-size="15">충전 금액</text>
  <text x="48" y="337" fill="#151B22" font-family="Arial, sans-serif" font-size="38" font-weight="800">50,000원</text>
  <g fill="#F2F4F6">
    <rect x="24" y="396" width="103" height="46" rx="23"/>
    <rect x="143" y="396" width="103" height="46" rx="23"/>
    <rect x="263" y="396" width="103" height="46" rx="23"/>
  </g>
  <text x="54" y="425" fill="#26313C" font-family="Arial, sans-serif" font-size="14" font-weight="800">1만원</text>
  <text x="173" y="425" fill="#26313C" font-family="Arial, sans-serif" font-size="14" font-weight="800">3만원</text>
  <text x="293" y="425" fill="#26313C" font-family="Arial, sans-serif" font-size="14" font-weight="800">5만원</text>
  <rect x="24" y="494" width="342" height="92" rx="10" fill="#EAF6EF"/>
  <text x="48" y="528" fill="#1F7A5C" font-family="Arial, sans-serif" font-size="15" font-weight="800">충전 후 예상 잔액</text>
  <text x="48" y="559" fill="#26313C" font-family="Arial, sans-serif" font-size="22" font-weight="800">135,000원</text>
  <rect x="24" y="666" width="342" height="60" rx="10" fill="#1F7A5C"/>
  <text x="155" y="703" fill="#FFFFFF" font-family="Arial, sans-serif" font-size="18" font-weight="800">충전하기</text>
</svg>
