<svg width="390" height="844" viewBox="0 0 390 844" fill="none" xmlns="http://www.w3.org/2000/svg">
  <rect width="390" height="844" fill="#F7F9FA"/>
  <text x="24" y="58" fill="#66717C" font-family="Arial, sans-serif" font-size="14" font-weight="700">자녀 가족 연결</text>
  <text x="24" y="98" fill="#151B22" font-family="Arial, sans-serif" font-size="28" font-weight="800">초대 코드 입력</text>
  <text x="24" y="128" fill="#66717C" font-family="Arial, sans-serif" font-size="15">부모님 앱에 표시된 코드를 입력하세요.</text>

  <rect x="24" y="176" width="342" height="132" rx="14" fill="#EEF5FC" stroke="#CFE0F4"/>
  <text x="48" y="216" fill="#2B6CB0" font-family="Arial, sans-serif" font-size="15" font-weight="800">연결 방법</text>
  <text x="48" y="252" fill="#26313C" font-family="Arial, sans-serif" font-size="18" font-weight="800">부모 초대 코드 6자리를 입력</text>
  <text x="48" y="282" fill="#66717C" font-family="Arial, sans-serif" font-size="14">부모가 승인하면 가족으로 연결됩니다.</text>

  <g transform="translate(24 360)">
    <rect width="48" height="58" rx="10" fill="#FFFFFF" stroke="#DDE4EA"/>
    <rect x="58" width="48" height="58" rx="10" fill="#FFFFFF" stroke="#DDE4EA"/>
    <rect x="116" width="48" height="58" rx="10" fill="#FFFFFF" stroke="#DDE4EA"/>
    <rect x="178" width="48" height="58" rx="10" fill="#FFFFFF" stroke="#DDE4EA"/>
    <rect x="236" width="48" height="58" rx="10" fill="#FFFFFF" stroke="#DDE4EA"/>
    <rect x="294" width="48" height="58" rx="10" fill="#FFFFFF" stroke="#DDE4EA"/>
    <text x="15" y="38" fill="#151B22" font-family="Arial, sans-serif" font-size="24" font-weight="800">P</text>
    <text x="73" y="38" fill="#151B22" font-family="Arial, sans-serif" font-size="24" font-weight="800">F</text>
    <text x="131" y="38" fill="#151B22" font-family="Arial, sans-serif" font-size="24" font-weight="800">4</text>
    <text x="193" y="38" fill="#151B22" font-family="Arial, sans-serif" font-size="24" font-weight="800">8</text>
    <text x="251" y="38" fill="#151B22" font-family="Arial, sans-serif" font-size="24" font-weight="800">2</text>
    <text x="309" y="38" fill="#151B22" font-family="Arial, sans-serif" font-size="24" font-weight="800">9</text>
  </g>

  <rect x="24" y="468" width="342" height="88" rx="10" fill="#FFFFFF" stroke="#E4E9EE"/>
  <text x="48" y="502" fill="#26313C" font-family="Arial, sans-serif" font-size="17" font-weight="800">부모 정보 확인</text>
  <text x="48" y="530" fill="#66717C" font-family="Arial, sans-serif" font-size="14">지훈님 가족으로 연결 요청을 보냅니다.</text>

  <rect x="24" y="594" width="342" height="78" rx="10" fill="#FFF8E8" stroke="#F1D58A"/>
  <text x="48" y="626" fill="#8A6517" font-family="Arial, sans-serif" font-size="15" font-weight="800">요청 후 상태</text>
  <text x="48" y="652" fill="#66717C" font-family="Arial, sans-serif" font-size="14">요청 완료 · 부모 승인 대기</text>

  <rect x="24" y="720" width="342" height="60" rx="10" fill="#1F7A5C"/>
  <text x="129" y="757" fill="#FFFFFF" font-family="Arial, sans-serif" font-size="18" font-weight="800">연결 요청 보내기</text>
</svg>
