<svg width="390" height="844" viewBox="0 0 390 844" fill="none" xmlns="http://www.w3.org/2000/svg">
  <rect width="390" height="844" fill="#F7F9FA"/>
  <text x="24" y="58" fill="#66717C" font-family="Arial, sans-serif" font-size="14" font-weight="700">자녀 홈</text>
  <text x="24" y="98" fill="#151B22" font-family="Arial, sans-serif" font-size="28" font-weight="800">민준의 미션</text>
  <rect x="24" y="132" width="342" height="138" rx="14" fill="#EEF5FC" stroke="#CFE0F4"/>
  <text x="48" y="173" fill="#2B6CB0" font-family="Arial, sans-serif" font-size="15" font-weight="800">이번 주 내가 번 돈</text>
  <text x="48" y="222" fill="#151B22" font-family="Arial, sans-serif" font-size="38" font-weight="800">7,000원</text>
  <text x="48" y="248" fill="#66717C" font-family="Arial, sans-serif" font-size="14">성공한 미션 3개</text>
  <text x="24" y="326" fill="#151B22" font-family="Arial, sans-serif" font-size="20" font-weight="800">새 미션</text>
  <rect x="24" y="352" width="342" height="126" rx="10" fill="#FFFFFF" stroke="#E4E9EE"/>
  <text x="48" y="386" fill="#26313C" font-family="Arial, sans-serif" font-size="18" font-weight="800">수학 문제집 3쪽</text>
  <text x="48" y="416" fill="#66717C" font-family="Arial, sans-serif" font-size="15">오늘까지 · 보상 3,000원</text>
  <rect x="48" y="438" width="92" height="28" rx="14" fill="#FFF8E8"/>
  <text x="63" y="457" fill="#8A6517" font-family="Arial, sans-serif" font-size="12" font-weight="800">진행 중</text>
  <rect x="24" y="504" width="342" height="126" rx="10" fill="#FFFFFF" stroke="#E4E9EE"/>
  <text x="48" y="538" fill="#26313C" font-family="Arial, sans-serif" font-size="18" font-weight="800">재활용 버리기</text>
  <text x="48" y="568" fill="#66717C" font-family="Arial, sans-serif" font-size="15">내일까지 · 보상 2,000원</text>
  <rect x="48" y="590" width="92" height="28" rx="14" fill="#EAF6EF"/>
  <text x="63" y="609" fill="#1F7A5C" font-family="Arial, sans-serif" font-size="12" font-weight="800">시작 가능</text>
  <rect x="24" y="704" width="342" height="60" rx="10" fill="#1F7A5C"/>
  <text x="151" y="741" fill="#FFFFFF" font-family="Arial, sans-serif" font-size="18" font-weight="800">캐시북 보기</text>
</svg>
