<svg width="390" height="844" viewBox="0 0 390 844" fill="none" xmlns="http://www.w3.org/2000/svg">
  <rect width="390" height="844" fill="#F7F9FA"/>
  <text x="24" y="58" fill="#66717C" font-family="Arial, sans-serif" font-size="14" font-weight="700">부모 홈</text>
  <text x="24" y="98" fill="#151B22" font-family="Arial, sans-serif" font-size="28" font-weight="800">안녕하세요, 지훈님</text>
  <rect x="24" y="132" width="342" height="150" rx="14" fill="#17202A"/>
  <text x="48" y="174" fill="#A9B7C4" font-family="Arial, sans-serif" font-size="15">적립금</text>
  <text x="48" y="224" fill="#FFFFFF" font-family="Arial, sans-serif" font-size="38" font-weight="800">85,000원</text>
  <text x="48" y="254" fill="#A9B7C4" font-family="Arial, sans-serif" font-size="14">이번 달 지급 완료 12,000원</text>
  <rect x="24" y="312" width="162" height="64" rx="10" fill="#1F7A5C"/>
  <text x="84" y="351" fill="#FFFFFF" font-family="Arial, sans-serif" font-size="17" font-weight="800">충전</text>
  <rect x="204" y="312" width="162" height="64" rx="10" fill="#20262D"/>
  <text x="252" y="351" fill="#FFFFFF" font-family="Arial, sans-serif" font-size="17" font-weight="800">미션 등록</text>
  <text x="24" y="430" fill="#151B22" font-family="Arial, sans-serif" font-size="20" font-weight="800">진행 중 미션</text>
  <rect x="24" y="456" width="342" height="100" rx="10" fill="#FFFFFF" stroke="#E4E9EE"/>
  <text x="48" y="489" fill="#26313C" font-family="Arial, sans-serif" font-size="17" font-weight="800">수학 문제집 3쪽</text>
  <text x="48" y="518" fill="#66717C" font-family="Arial, sans-serif" font-size="15">민준 · 보상 3,000원</text>
  <rect x="278" y="478" width="64" height="28" rx="14" fill="#FFF8E8"/>
  <text x="292" y="497" fill="#8A6517" font-family="Arial, sans-serif" font-size="12" font-weight="800">진행중</text>
  <rect x="24" y="574" width="342" height="100" rx="10" fill="#FFFFFF" stroke="#E4E9EE"/>
  <text x="48" y="607" fill="#26313C" font-family="Arial, sans-serif" font-size="17" font-weight="800">방 청소하기</text>
  <text x="48" y="636" fill="#66717C" font-family="Arial, sans-serif" font-size="15">서연 · 보상 2,000원</text>
  <rect x="278" y="596" width="64" height="28" rx="14" fill="#EAF6EF"/>
  <text x="292" y="615" fill="#1F7A5C" font-family="Arial, sans-serif" font-size="12" font-weight="800">제출</text>
</svg>
