<svg width="390" height="844" viewBox="0 0 390 844" fill="none" xmlns="http://www.w3.org/2000/svg">
  <rect width="390" height="844" fill="#F7F9FA"/>
  <text x="24" y="58" fill="#66717C" font-family="Arial, sans-serif" font-size="14" font-weight="700">미션 보상</text>
  <text x="24" y="98" fill="#151B22" font-family="Arial, sans-serif" font-size="28" font-weight="800">미션 등록</text>
  <rect x="24" y="132" width="342" height="66" rx="10" fill="#FFFFFF" stroke="#E4E9EE"/>
  <text x="48" y="173" fill="#26313C" font-family="Arial, sans-serif" font-size="17" font-weight="800">자녀 선택 · 민준</text>
  <rect x="24" y="222" width="342" height="92" rx="10" fill="#FFFFFF" stroke="#E4E9EE"/>
  <text x="48" y="255" fill="#66717C" font-family="Arial, sans-serif" font-size="14">미션 이름</text>
  <text x="48" y="286" fill="#26313C" font-family="Arial, sans-serif" font-size="18" font-weight="800">수학 문제집 3쪽 풀기</text>
  <rect x="24" y="338" width="342" height="92" rx="10" fill="#FFFFFF" stroke="#E4E9EE"/>
  <text x="48" y="371" fill="#66717C" font-family="Arial, sans-serif" font-size="14">보상 금액</text>
  <text x="48" y="404" fill="#151B22" font-family="Arial, sans-serif" font-size="30" font-weight="800">3,000원</text>
  <rect x="24" y="454" width="342" height="78" rx="10" fill="#FFFFFF" stroke="#E4E9EE"/>
  <text x="48" y="485" fill="#66717C" font-family="Arial, sans-serif" font-size="14">미션 수행 날짜</text>
  <text x="48" y="512" fill="#26313C" font-family="Arial, sans-serif" font-size="18" font-weight="800">2026년 6월 5일 금요일</text>
  <rect x="24" y="556" width="342" height="68" rx="10" fill="#FFF8E8" stroke="#F1D58A"/>
  <text x="48" y="584" fill="#8A6517" font-family="Arial, sans-serif" font-size="15" font-weight="800">보상 예약</text>
  <text x="48" y="607" fill="#66717C" font-family="Arial, sans-serif" font-size="14">부모 크레딧에서 지급 가능한 금액인지 확인</text>
  <rect x="24" y="646" width="342" height="58" rx="10" fill="#FFFFFF" stroke="#E4E9EE"/>
  <text x="48" y="681" fill="#26313C" font-family="Arial, sans-serif" font-size="16" font-weight="800">완료 조건 · 사진 또는 메모 제출</text>
  <rect x="24" y="704" width="342" height="60" rx="10" fill="#20262D"/>
  <text x="143" y="741" fill="#FFFFFF" font-family="Arial, sans-serif" font-size="18" font-weight="800">미션 보내기</text>
</svg>
