<svg width="390" height="844" viewBox="0 0 390 844" fill="none" xmlns="http://www.w3.org/2000/svg">
  <rect width="390" height="844" fill="#F7F9FA"/>
  <text x="24" y="58" fill="#66717C" font-family="Arial, sans-serif" font-size="14" font-weight="700">부모 승인</text>
  <text x="24" y="98" fill="#151B22" font-family="Arial, sans-serif" font-size="28" font-weight="800">제출 확인</text>
  <rect x="24" y="132" width="342" height="132" rx="14" fill="#FFFFFF" stroke="#E4E9EE"/>
  <text x="48" y="170" fill="#26313C" font-family="Arial, sans-serif" font-size="20" font-weight="800">민준 · 수학 문제집 3쪽</text>
  <text x="48" y="202" fill="#66717C" font-family="Arial, sans-serif" font-size="15">보상 3,000원 · 제출 완료</text>
  <rect x="48" y="224" width="88" height="28" rx="14" fill="#EAF6EF"/>
  <text x="62" y="243" fill="#1F7A5C" font-family="Arial, sans-serif" font-size="12" font-weight="800">제출 완료</text>
  <rect x="24" y="304" width="342" height="150" rx="10" fill="#FFFFFF" stroke="#E4E9EE"/>
  <text x="48" y="340" fill="#26313C" font-family="Arial, sans-serif" font-size="17" font-weight="800">제출 내용</text>
  <rect x="48" y="362" width="116" height="70" rx="8" fill="#F2F4F6"/>
  <text x="73" y="403" fill="#66717C" font-family="Arial, sans-serif" font-size="14">인증 사진</text>
  <text x="182" y="392" fill="#66717C" font-family="Arial, sans-serif" font-size="14">오늘 배운 나눗셈까지</text>
  <text x="182" y="416" fill="#66717C" font-family="Arial, sans-serif" font-size="14">풀었어요.</text>
  <rect x="24" y="492" width="342" height="92" rx="10" fill="#FFF8E8" stroke="#F1D58A"/>
  <text x="48" y="526" fill="#8A6517" font-family="Arial, sans-serif" font-size="15" font-weight="800">승인 시 지급</text>
  <text x="48" y="557" fill="#26313C" font-family="Arial, sans-serif" font-size="20" font-weight="800">부모 -3,000원  /  자녀 +3,000원</text>
  <rect x="24" y="648" width="162" height="60" rx="10" fill="#1F7A5C"/>
  <text x="86" y="685" fill="#FFFFFF" font-family="Arial, sans-serif" font-size="18" font-weight="800">승인</text>
  <rect x="204" y="648" width="162" height="60" rx="10" fill="#F2F4F6"/>
  <text x="266" y="685" fill="#26313C" font-family="Arial, sans-serif" font-size="18" font-weight="800">반려</text>
</svg>
