<svg width="390" height="844" viewBox="0 0 390 844" fill="none" xmlns="http://www.w3.org/2000/svg">
  <rect width="390" height="844" fill="#F7F9FA"/>
  <text x="24" y="58" fill="#66717C" font-family="Arial, sans-serif" font-size="14" font-weight="700">지갑과 원장</text>
  <text x="24" y="98" fill="#151B22" font-family="Arial, sans-serif" font-size="28" font-weight="800">아이 캐시북</text>
  <rect x="24" y="132" width="342" height="136" rx="14" fill="#17202A"/>
  <text x="48" y="174" fill="#A9B7C4" font-family="Arial, sans-serif" font-size="15">민준의 잔액</text>
  <text x="48" y="222" fill="#FFFFFF" font-family="Arial, sans-serif" font-size="38" font-weight="800">17,000원</text>
  <text x="48" y="248" fill="#A9B7C4" font-family="Arial, sans-serif" font-size="14">내가 직접 번 돈 기록</text>
  <text x="24" y="324" fill="#151B22" font-family="Arial, sans-serif" font-size="20" font-weight="800">최근 기록</text>
  <rect x="24" y="350" width="342" height="92" rx="10" fill="#FFFFFF" stroke="#E4E9EE"/>
  <text x="48" y="383" fill="#26313C" font-family="Arial, sans-serif" font-size="17" font-weight="800">수학 문제집 3쪽</text>
  <text x="48" y="412" fill="#66717C" font-family="Arial, sans-serif" font-size="14">미션 보상 · 지급 완료</text>
  <text x="279" y="384" fill="#1F7A5C" font-family="Arial, sans-serif" font-size="16" font-weight="800">+3,000</text>
  <rect x="24" y="462" width="342" height="92" rx="10" fill="#FFFFFF" stroke="#E4E9EE"/>
  <text x="48" y="495" fill="#26313C" font-family="Arial, sans-serif" font-size="17" font-weight="800">방 청소하기</text>
  <text x="48" y="524" fill="#66717C" font-family="Arial, sans-serif" font-size="14">미션 보상 · 지급 완료</text>
  <text x="279" y="496" fill="#1F7A5C" font-family="Arial, sans-serif" font-size="16" font-weight="800">+2,000</text>
  <rect x="24" y="574" width="342" height="92" rx="10" fill="#FFFFFF" stroke="#E4E9EE"/>
  <text x="48" y="607" fill="#26313C" font-family="Arial, sans-serif" font-size="17" font-weight="800">간식 사기</text>
  <text x="48" y="636" fill="#66717C" font-family="Arial, sans-serif" font-size="14">사용 기록 · 승인 완료</text>
  <text x="284" y="608" fill="#D84F45" font-family="Arial, sans-serif" font-size="16" font-weight="800">-1,500</text>
  <rect x="24" y="706" width="342" height="60" rx="10" fill="#EEF5FC"/>
  <text x="82" y="743" fill="#2B6CB0" font-family="Arial, sans-serif" font-size="18" font-weight="800">원장 상세 보기</text>
</svg>
