<svg width="390" height="844" viewBox="0 0 390 844" fill="none" xmlns="http://www.w3.org/2000/svg">
  <rect width="390" height="844" fill="#F7F9FA"/>
  <text x="24" y="58" fill="#66717C" font-family="Arial, sans-serif" font-size="14" font-weight="700">미션 상세</text>
  <text x="24" y="98" fill="#151B22" font-family="Arial, sans-serif" font-size="28" font-weight="800">완료 제출</text>
  <rect x="24" y="132" width="342" height="132" rx="14" fill="#FFFFFF" stroke="#E4E9EE"/>
  <text x="48" y="170" fill="#26313C" font-family="Arial, sans-serif" font-size="21" font-weight="800">수학 문제집 3쪽</text>
  <text x="48" y="202" fill="#66717C" font-family="Arial, sans-serif" font-size="15">부모가 확인하면 3,000원을 받아요.</text>
  <rect x="48" y="224" width="86" height="28" rx="14" fill="#FFF8E8"/>
  <text x="62" y="243" fill="#8A6517" font-family="Arial, sans-serif" font-size="12" font-weight="800">진행 중</text>
  <rect x="24" y="304" width="342" height="160" rx="10" fill="#FFFFFF" stroke="#E4E9EE"/>
  <text x="48" y="340" fill="#26313C" font-family="Arial, sans-serif" font-size="17" font-weight="800">인증 사진</text>
  <rect x="48" y="362" width="294" height="74" rx="10" fill="#F2F4F6"/>
  <text x="129" y="407" fill="#66717C" font-family="Arial, sans-serif" font-size="15">사진 첨부하기</text>
  <rect x="24" y="494" width="342" height="108" rx="10" fill="#FFFFFF" stroke="#E4E9EE"/>
  <text x="48" y="528" fill="#26313C" font-family="Arial, sans-serif" font-size="17" font-weight="800">메모</text>
  <text x="48" y="558" fill="#66717C" font-family="Arial, sans-serif" font-size="15">오늘 배운 나눗셈까지 풀었어요.</text>
  <rect x="24" y="632" width="342" height="72" rx="10" fill="#EAF6EF"/>
  <text x="48" y="662" fill="#1F7A5C" font-family="Arial, sans-serif" font-size="15" font-weight="800">제출 후 상태</text>
  <text x="48" y="686" fill="#66717C" font-family="Arial, sans-serif" font-size="14">제출 완료 · 부모 승인 대기</text>
  <rect x="24" y="734" width="342" height="60" rx="10" fill="#1F7A5C"/>
  <text x="145" y="771" fill="#FFFFFF" font-family="Arial, sans-serif" font-size="18" font-weight="800">완료 제출</text>
</svg>
