<svg width="390" height="844" viewBox="0 0 390 844" fill="none" xmlns="http://www.w3.org/2000/svg">
  <rect width="390" height="844" fill="#F7F9FA"/>
  <text x="24" y="58" fill="#66717C" font-family="Arial, sans-serif" font-size="14" font-weight="700">미션 상세</text>
  <text x="24" y="98" fill="#151B22" font-family="Arial, sans-serif" font-size="28" font-weight="800">상태 흐름</text>
  <rect x="24" y="132" width="342" height="126" rx="14" fill="#FFFFFF" stroke="#E4E9EE"/>
  <text x="48" y="170" fill="#26313C" font-family="Arial, sans-serif" font-size="21" font-weight="800">수학 문제집 3쪽 풀기</text>
  <text x="48" y="202" fill="#66717C" font-family="Arial, sans-serif" font-size="15">민준 · 보상 3,000원 · 오늘까지</text>
  <rect x="48" y="222" width="92" height="28" rx="14" fill="#FFF8E8"/>
  <text x="62" y="241" fill="#8A6517" font-family="Arial, sans-serif" font-size="12" font-weight="800">제출 완료</text>
  <text x="24" y="314" fill="#151B22" font-family="Arial, sans-serif" font-size="20" font-weight="800">진행 상태</text>
  <g font-family="Arial, sans-serif" font-size="15">
    <circle cx="48" cy="356" r="12" fill="#1F7A5C"/><text x="72" y="362" fill="#26313C" font-weight="800">등록 완료</text><text x="226" y="362" fill="#66717C">미션 등록</text>
    <line x1="48" y1="370" x2="48" y2="416" stroke="#CFE0D8" stroke-width="3"/>
    <circle cx="48" cy="430" r="12" fill="#1F7A5C"/><text x="72" y="436" fill="#26313C" font-weight="800">제출 완료</text><text x="226" y="436" fill="#66717C">완료 제출</text>
    <line x1="48" y1="444" x2="48" y2="490" stroke="#E4E9EE" stroke-width="3"/>
    <circle cx="48" cy="504" r="12" fill="#DDE4EA"/><text x="72" y="510" fill="#66717C" font-weight="800">지급 완료</text><text x="226" y="510" fill="#66717C">보상 지급</text>
  </g>
  <rect x="24" y="566" width="342" height="88" rx="10" fill="#EEF5FC" stroke="#CFE0F4"/>
  <text x="48" y="600" fill="#2B6CB0" font-family="Arial, sans-serif" font-size="15" font-weight="800">부모 확인 대기</text>
  <text x="48" y="628" fill="#66717C" font-family="Arial, sans-serif" font-size="14">승인되면 부모 지갑에서 자녀 지갑으로 보상이 이동합니다.</text>
  <rect x="24" y="706" width="342" height="60" rx="10" fill="#F2F4F6"/>
  <text x="138" y="743" fill="#26313C" font-family="Arial, sans-serif" font-size="18" font-weight="800">제출 수정</text>
</svg>
