<svg width="390" height="844" viewBox="0 0 390 844" fill="none" xmlns="http://www.w3.org/2000/svg">
  <rect width="390" height="844" fill="#F7F9FA"/>
  <text x="24" y="58" fill="#66717C" font-family="Arial, sans-serif" font-size="14" font-weight="700">설정</text>
  <text x="24" y="98" fill="#151B22" font-family="Arial, sans-serif" font-size="28" font-weight="800">프로필</text>
  <rect x="24" y="132" width="342" height="116" rx="14" fill="#FFFFFF" stroke="#E4E9EE"/>
  <circle cx="72" cy="190" r="28" fill="#EAF6EF"/>
  <text x="63" y="199" fill="#1F7A5C" font-family="Arial, sans-serif" font-size="24" font-weight="800">부</text>
  <text x="118" y="180" fill="#26313C" font-family="Arial, sans-serif" font-size="20" font-weight="800">지훈</text>
  <text x="118" y="210" fill="#66717C" font-family="Arial, sans-serif" font-size="15">부모 계정 · 가족 2명 연결</text>
  <rect x="24" y="284" width="342" height="64" rx="10" fill="#FFFFFF" stroke="#E4E9EE"/>
  <text x="48" y="324" fill="#26313C" font-family="Arial, sans-serif" font-size="17" font-weight="800">가족 관리</text>
  <text x="322" y="324" fill="#66717C" font-family="Arial, sans-serif" font-size="20">›</text>
  <rect x="24" y="364" width="342" height="64" rx="10" fill="#FFFFFF" stroke="#E4E9EE"/>
  <text x="48" y="404" fill="#26313C" font-family="Arial, sans-serif" font-size="17" font-weight="800">지갑과 충전 계좌</text>
  <text x="322" y="404" fill="#66717C" font-family="Arial, sans-serif" font-size="20">›</text>
  <rect x="24" y="444" width="342" height="64" rx="10" fill="#FFFFFF" stroke="#E4E9EE"/>
  <text x="48" y="484" fill="#26313C" font-family="Arial, sans-serif" font-size="17" font-weight="800">알림 설정</text>
  <text x="322" y="484" fill="#66717C" font-family="Arial, sans-serif" font-size="20">›</text>
  <rect x="24" y="524" width="342" height="64" rx="10" fill="#FFFFFF" stroke="#E4E9EE"/>
  <text x="48" y="564" fill="#26313C" font-family="Arial, sans-serif" font-size="17" font-weight="800">더미데이터 모드</text>
  <rect x="292" y="544" width="50" height="26" rx="13" fill="#1F7A5C"/>
  <circle cx="329" cy="557" r="10" fill="#FFFFFF"/>
  <rect x="24" y="668" width="342" height="58" rx="10" fill="#FDECEC"/>
  <text x="160" y="704" fill="#D84F45" font-family="Arial, sans-serif" font-size="17" font-weight="800">로그아웃</text>
</svg>
