<svg width="390" height="844" viewBox="0 0 390 844" fill="none" xmlns="http://www.w3.org/2000/svg">
  <rect width="390" height="844" fill="#F7F9FA"/>
  <text x="24" y="58" fill="#66717C" font-family="Arial, sans-serif" font-size="14" font-weight="700">미션 캘린더</text>
  <text x="24" y="98" fill="#151B22" font-family="Arial, sans-serif" font-size="28" font-weight="800">2026년 6월</text>
  <rect x="24" y="130" width="342" height="94" rx="14" fill="#EEF5FC" stroke="#CFE0F4"/>
  <text x="48" y="166" fill="#2B6CB0" font-family="Arial, sans-serif" font-size="15" font-weight="800">이번 달 미션 요약</text>
  <text x="48" y="202" fill="#151B22" font-family="Arial, sans-serif" font-size="26" font-weight="800">완료 3개 · 7,000원</text>

  <g font-family="Arial, sans-serif" font-size="13" font-weight="800" fill="#66717C">
    <text x="38" y="276">월</text><text x="86" y="276">화</text><text x="134" y="276">수</text><text x="182" y="276">목</text><text x="230" y="276">금</text><text x="278" y="276">토</text><text x="326" y="276">일</text>
  </g>
  <g fill="#FFFFFF" stroke="#E4E9EE">
    <rect x="24" y="294" width="42" height="50" rx="8"/><rect x="72" y="294" width="42" height="50" rx="8"/><rect x="120" y="294" width="42" height="50" rx="8"/><rect x="168" y="294" width="42" height="50" rx="8"/><rect x="216" y="294" width="42" height="50" rx="8"/><rect x="264" y="294" width="42" height="50" rx="8"/><rect x="312" y="294" width="42" height="50" rx="8"/>
    <rect x="24" y="352" width="42" height="50" rx="8"/><rect x="72" y="352" width="42" height="50" rx="8"/><rect x="120" y="352" width="42" height="50" rx="8"/><rect x="168" y="352" width="42" height="50" rx="8"/><rect x="216" y="352" width="42" height="50" rx="8"/><rect x="264" y="352" width="42" height="50" rx="8"/><rect x="312" y="352" width="42" height="50" rx="8"/>
    <rect x="24" y="410" width="42" height="50" rx="8"/><rect x="72" y="410" width="42" height="50" rx="8"/><rect x="120" y="410" width="42" height="50" rx="8"/><rect x="168" y="410" width="42" height="50" rx="8"/><rect x="216" y="410" width="42" height="50" rx="8"/><rect x="264" y="410" width="42" height="50" rx="8"/><rect x="312" y="410" width="42" height="50" rx="8"/>
  </g>
  <g font-family="Arial, sans-serif" font-size="13" fill="#26313C">
    <text x="40" y="323">1</text><text x="88" y="323">2</text><text x="136" y="323">3</text><text x="184" y="323">4</text><text x="232" y="323">5</text><text x="280" y="323">6</text><text x="328" y="323">7</text>
    <text x="37" y="381">8</text><text x="85" y="381">9</text><text x="132" y="381">10</text><text x="180" y="381">11</text><text x="228" y="381">12</text><text x="276" y="381">13</text><text x="324" y="381">14</text>
    <text x="36" y="439">15</text><text x="84" y="439">16</text><text x="132" y="439">17</text><text x="180" y="439">18</text><text x="228" y="439">19</text><text x="276" y="439">20</text><text x="324" y="439">21</text>
  </g>
  <circle cx="237" cy="333" r="4" fill="#1F7A5C"/>
  <circle cx="93" cy="391" r="4" fill="#1F7A5C"/>
  <circle cx="285" cy="449" r="4" fill="#8A6517"/>

  <text x="24" y="520" fill="#151B22" font-family="Arial, sans-serif" font-size="20" font-weight="800">6월 5일 미션</text>
  <rect x="24" y="546" width="342" height="92" rx="10" fill="#FFFFFF" stroke="#E4E9EE"/>
  <text x="48" y="579" fill="#26313C" font-family="Arial, sans-serif" font-size="17" font-weight="800">수학 문제집 3쪽</text>
  <text x="48" y="608" fill="#66717C" font-family="Arial, sans-serif" font-size="14">민준 · 지급 완료 · +3,000원</text>
  <rect x="268" y="574" width="74" height="28" rx="14" fill="#EAF6EF"/>
  <text x="286" y="593" fill="#1F7A5C" font-family="Arial, sans-serif" font-size="12" font-weight="800">완료</text>

  <rect x="24" y="660" width="342" height="92" rx="10" fill="#FFFFFF" stroke="#E4E9EE"/>
  <text x="48" y="693" fill="#26313C" font-family="Arial, sans-serif" font-size="17" font-weight="800">영어 단어 20개 외우기</text>
  <text x="48" y="722" fill="#66717C" font-family="Arial, sans-serif" font-size="14">민준 · 진행 중 · 2,000원</text>
  <rect x="268" y="688" width="74" height="28" rx="14" fill="#FFF8E8"/>
  <text x="286" y="707" fill="#8A6517" font-family="Arial, sans-serif" font-size="12" font-weight="800">진행</text>
</svg>
